HIERARCHY
ROOT Hips
{
	OFFSET 0.000000 0.000000 0.000000
	CHANNELS 6 Xposition Yposition Zposition Zrotation Yrotation Xrotation 
	JOINT LHipJoint
	{
		OFFSET 0.000000 0.000000 0.000000
		CHANNELS 3 Zrotation Yrotation Xrotation
		JOINT LeftUpLeg
		{
			OFFSET 1.363060 -1.794630 0.839290
			CHANNELS 3 Zrotation Yrotation Xrotation
			JOINT LeftLeg
			{
				OFFSET 2.448110 -6.726130 0.000000
				CHANNELS 3 Zrotation Yrotation Xrotation
				JOINT LeftFoot
				{
					OFFSET 2.562200 -7.039590 0.000000
					CHANNELS 3 Zrotation Yrotation Xrotation
					JOINT LeftToeBase
					{
						OFFSET 0.157640 -0.433110 2.322550
						CHANNELS 3 Zrotation Yrotation Xrotation
						End Site
						{
							OFFSET 0.000000 0.000000 0.000000
						}
					}
				}
			}
		}
	}
	JOINT RHipJoint
	{
		OFFSET 0.000000 0.000000 0.000000
		CHANNELS 3 Zrotation Yrotation Xrotation
		JOINT RightUpLeg
		{
			OFFSET -1.305520 -1.794630 0.839290
			CHANNELS 3 Zrotation Yrotation Xrotation
			JOINT RightLeg
			{
				OFFSET -2.542530 -6.985550 0.000000
				CHANNELS 3 Zrotation Yrotation Xrotation
				JOINT RightFoot
				{
					OFFSET -2.568260 -7.056230 0.000000
					CHANNELS 3 Zrotation Yrotation Xrotation
					JOINT RightToeBase
					{
						OFFSET -0.164730 -0.452590 2.363150
						CHANNELS 3 Zrotation Yrotation Xrotation
						End Site
						{
							OFFSET 0.000000 0.000000 0.000000
						}
					}
				}
			}
		}
	}
}
MOTION
Frames: 25
Frame Time: 0.008333
12.673739 20.148971 1.217279 23.130433 -84.272085 1.042970 -11.133713 2.329637 4.285812 -4.271257 -4.107335 -28.296901 0.308200 0.573127 24.205365 2.001255 11.377334 29.229575 6.328000 0.000000 -56.880100 10.723527 -1.948644 1.440458 3.066867 -7.957681 -26.201431 0.851356 -1.190182 20.711930 -0.895440 -5.026461 20.971864 -2.704401 -0.000000 -80.773700
12.532044 20.257496 1.209512 22.987289 -84.257241 1.383089 -11.097456 2.240539 4.245136 -4.473309 -4.191738 -28.965886 0.225426 0.567310 23.479020 1.920098 11.068356 28.614689 6.108000 0.000000 -57.011200 10.669106 -1.864888 1.428136 3.250432 -8.067616 -26.775476 1.015515 -1.093801 19.277685 -0.859775 -5.112019 20.524446 -2.775200 -0.000000 -80.730700
12.392273 20.356109 1.201656 22.753525 -84.235633 1.820312 -11.061685 2.150700 4.204836 -4.669152 -4.296034 -29.593697 0.134213 0.553694 22.542462 1.834399 10.698769 28.214360 5.886200 -0.000000 -57.142200 10.611097 -1.781908 1.419152 3.451589 -8.139302 -27.334067 1.187889 -0.987083 17.761715 -0.811013 -5.092302 20.170497 -2.799100 0.000000 -80.671200
12.253996 20.444422 1.193576 22.469162 -84.211282 2.315710 -11.025739 2.060561 4.167987 -4.858548 -4.427343 -30.183614 0.035218 0.531828 21.414873 1.745779 10.294887 28.005983 5.673500 -0.000000 -57.366200 10.550110 -1.698718 1.417703 3.662801 -8.162483 -27.886840 1.364932 -0.870397 16.196302 -0.752259 -4.993691 19.880069 -2.787900 -0.000000 -80.734500
12.116739 20.522191 1.185230 22.164590 -84.187630 2.840123 -10.989042 1.970680 4.136051 -5.043231 -4.582011 -30.746059 -0.072374 0.502120 20.134328 1.653824 9.867805 27.930274 5.466900 0.000000 -57.638100 10.486635 -1.614585 1.426446 3.878206 -8.136907 -28.447394 1.544340 -0.745386 14.624456 -0.684936 -4.826852 19.609326 -2.744000 0.000000 -80.853600
11.980100 20.588712 1.176639 21.862537 -84.167572 3.369255 -10.950819 1.881163 4.109915 -5.226242 -4.753314 -31.293916 -0.189460 0.464960 18.742906 1.558393 9.427853 27.927336 5.263700 -0.000000 -57.926800 10.421398 -1.528778 1.446203 4.093734 -8.070489 -29.028863 1.723818 -0.614255 13.082334 -0.610647 -4.600948 19.338234 -2.670800 0.000000 -80.981100
11.843872 20.644149 1.167948 21.567395 -84.153796 3.893432 -10.910657 1.792010 4.087802 -5.413943 -4.920443 -31.843884 -0.317909 0.421363 17.292675 1.458006 8.970173 27.930016 5.052400 0.000000 -58.141800 10.355115 -1.441166 1.475640 4.309883 -7.979371 -29.643197 1.901861 -0.480233 11.604387 -0.530018 -4.317877 19.061515 -2.568700 0.000000 -81.032700
11.707609 20.688112 1.159263 21.296542 -84.148255 4.395335 -10.868041 1.703354 4.069590 -5.613511 -5.070674 -32.408300 -0.457712 0.371210 15.819005 1.354078 8.507231 27.913814 4.837600 -0.000000 -58.351300 10.289489 -1.352035 1.512738 4.527332 -7.882372 -30.300430 2.076466 -0.346551 10.207721 -0.444525 -3.986307 18.813889 -2.443700 0.000000 -81.061100
11.571244 20.720778 1.150710 21.050752 -84.152717 4.869037 -10.823005 1.615288 4.052315 -5.836244 -5.180016 -33.000460 -0.609353 0.315205 14.359059 1.247006 8.037775 27.861922 4.616600 0.000000 -58.544800 10.225949 -1.262234 1.554040 4.751462 -7.799796 -31.007995 2.246673 -0.217133 8.906385 -0.354521 -3.609348 18.636353 -2.298900 0.000000 -81.060500
11.434703 20.741837 1.142467 20.796061 -84.169128 5.342854 -10.776810 1.528134 4.029179 -6.099039 -5.206704 -33.638459 -0.774427 0.255462 12.959256 1.134962 7.535806 27.757857 4.372800 0.000000 -58.612700 10.165200 -1.173894 1.596299 4.992529 -7.748217 -31.768091 2.412601 -0.095707 7.709921 -0.259906 -3.189479 18.568962 -2.136500 -0.000000 -80.990700
11.297862 20.751771 1.134505 20.568512 -84.197294 5.780867 -10.729508 1.442671 3.999153 -6.414278 -5.147993 -34.318400 -0.950399 0.191749 11.617936 1.022537 7.029464 27.654503 4.127100 -0.000001 -58.758200 10.109298 -1.087618 1.636413 5.251885 -7.738428 -32.580490 2.572885 0.014847 6.612123 -0.162363 -2.739529 18.665632 -1.962400 0.000001 -80.982599
11.161069 20.750183 1.126952 20.305095 -84.237913 6.236643 -10.683221 1.359319 3.951728 -6.804611 -4.955448 -35.057650 -1.139779 0.128095 10.380105 0.905809 6.471289 27.543431 3.850600 0.000000 -58.777100 10.057447 -1.005782 1.672569 5.541063 -7.772876 -33.437617 2.728537 0.112682 5.612251 -0.062396 -2.265767 18.942861 -1.777400 -0.000000 -80.963600
11.024428 20.737147 1.119627 20.029761 -84.289233 6.681619 -10.638646 1.279050 3.881732 -7.287599 -4.621029 -35.846431 -1.341298 0.066199 9.243812 0.787231 5.871097 27.475966 3.551600 -0.000000 -58.872900 10.010227 -0.928376 1.701326 5.860626 -7.855395 -34.328327 2.879248 0.196691 4.702884 0.038237 -1.777047 19.409927 -1.581800 0.000000 -81.039400
10.887854 20.712560 1.112442 19.786035 -84.348226 7.085979 -10.593740 1.202157 3.801493 -7.841652 -4.217628 -36.661402 -1.547623 0.002444 8.152744 0.675725 5.310183 27.505634 3.280000 -0.000000 -59.078000 9.967601 -0.854025 1.726650 6.198903 -7.960904 -35.249667 3.022537 0.269531 3.859021 0.134433 -1.304884 20.059683 -1.387100 -0.000000 -81.210200
10.751838 20.676171 1.105327 19.474344 -84.412981 7.528309 -10.551546 1.129340 3.689309 -8.507251 -3.658036 -37.527233 -1.766887 -0.054342 7.193077 0.559257 4.669010 27.571594 2.959800 0.000000 -59.129000 9.926417 -0.784720 1.744365 6.571303 -8.096801 -36.178449 3.162174 0.331559 3.091135 0.227501 -0.838134 20.829077 -1.184000 -0.000000 -81.378200
10.616354 20.627784 1.098032 19.161179 -84.478846 7.951440 -10.509407 1.060284 3.558091 -9.255577 -3.025908 -38.410256 -1.990779 -0.108194 6.302574 0.447432 4.036657 27.721417 2.643900 -0.000000 -59.326500 9.886383 -0.717326 1.755065 6.963087 -8.247906 -37.107991 3.296323 0.385784 2.384079 0.313722 -0.397541 21.670860 -0.981300 -0.000000 -81.625700
10.481556 20.567281 1.090421 18.848226 -84.541651 8.353851 -10.466087 0.994341 3.412706 -10.067815 -2.358514 -39.299803 -2.215576 -0.159539 5.472346 0.342013 3.430808 27.941113 2.340100 0.000001 -59.683000 9.845825 -0.650198 1.758479 7.369994 -8.406441 -38.031663 3.425547 0.434595 1.736402 0.392095 0.009415 22.516760 -0.783300 -0.000000 -81.926101
10.347319 20.494453 1.082460 18.468156 -84.598665 8.805233 -10.421198 0.932042 3.251322 -10.942774 -1.647357 -40.220472 -2.443406 -0.204279 4.756019 0.235926 2.789736 28.148991 2.008700 -0.000000 -59.867000 9.802021 -0.584742 1.756646 7.798217 -8.566010 -38.946622 3.552708 0.480040 1.156045 0.463859 0.382898 23.292582 -0.593100 -0.000001 -82.157200
10.213613 20.409260 1.073923 18.108745 -84.645933 9.227857 -10.372384 0.871476 3.093991 -11.823252 -0.996904 -41.135591 -2.661782 -0.248318 4.086606 0.140636 2.223327 28.388317 1.715600 -0.000000 -60.313601 9.755503 -0.517152 1.747389 8.235026 -8.724532 -39.862283 3.676768 0.521990 0.648308 0.528790 0.720065 23.956387 -0.415500 -0.000001 -82.435800
10.080257 20.311932 1.064923 17.682735 -84.682720 9.712351 -10.319986 0.813786 2.938590 -12.709079 -0.384585 -42.088069 -2.873767 -0.284898 3.547319 0.046353 1.645018 28.562426 1.408600 0.000000 -60.605900 9.703947 -0.450557 1.733184 8.692607 -8.880551 -40.789989 3.801467 0.559185 0.236630 0.590419 1.034558 24.464948 -0.247500 -0.000001 -82.621401
9.947188 20.202378 1.055337 17.259055 -84.707955 10.201496 -10.263238 0.757217 2.803867 -13.543209 0.104181 -43.057804 -3.067598 -0.317392 3.099279 -0.037667 1.143522 28.708819 1.142100 0.000001 -61.065300 9.648409 -0.383013 1.712138 9.164715 -9.034954 -41.753946 3.926164 0.587341 -0.056368 0.650273 1.338632 24.821310 -0.084600 0.000000 -82.818600
9.814279 20.081147 1.045205 16.833825 -84.723852 10.707668 -10.203065 0.701511 2.696938 -14.296795 0.446194 -44.059423 -3.238340 -0.342705 2.770868 -0.110825 0.723779 28.817950 0.919900 0.000000 -61.681400 9.589040 -0.315971 1.684476 9.654589 -9.185911 -42.779134 4.051355 0.600357 -0.197511 0.710907 1.651264 25.046939 0.082800 -0.000000 -83.047400
9.681359 19.948277 1.034668 16.381495 -84.733916 11.264596 -10.140764 0.647396 2.621255 -14.951835 0.637730 -45.121567 -3.383308 -0.354808 2.616429 -0.175024 0.366429 28.865120 0.731600 -0.000000 -62.233200 9.525931 -0.252375 1.651922 10.166191 -9.327294 -43.893907 4.177354 0.590087 -0.144368 0.775337 1.996198 25.178450 0.267900 0.000000 -83.231500
9.548598 19.804278 1.023694 15.953706 -84.743337 11.821838 -10.077889 0.593848 2.579637 -15.482786 0.660786 -46.241125 -3.495472 -0.350302 2.647517 -0.225186 0.108092 28.890904 0.598800 -0.000000 -62.932300 9.461152 -0.192518 1.612391 10.690525 -9.454242 -45.120413 4.300410 0.545821 0.147967 0.844659 2.392810 25.274994 0.484300 0.000000 -83.505100
9.415809 19.648797 1.012562 15.508133 -84.759806 12.440952 -10.017007 0.538861 2.583380 -15.835650 0.474549 -47.428566 -3.563736 -0.327776 2.872227 -0.253622 0.009746 28.919503 0.557700 0.000000 -63.694700 9.395481 -0.137910 1.572201 11.212520 -9.528540 -46.479409 4.414710 0.460633 0.702307 0.916205 2.824897 25.411066 0.726300 -0.000001 -83.866900
